<mxfile host="app.diagrams.net" modified="2023-10-12T07:28:56.526Z" agent="Mozilla/5.0 (Windows NT 10.0; Win64; x64) AppleWebKit/537.36 (KHTML, like Gecko) Chrome/117.0.0.0 Safari/537.36" version="21.6.7" etag="HfsZ24g9gfv5LfU_KuHn" type="github">
  <diagram name="Page-1" id="amFG-4uqAcwjyuL5grmp">
    <mxGraphModel>
      <root>
        <mxCell id="0" />
        <mxCell id="1" parent="0" />
      </root>
    </mxGraphModel>
  </diagram>
</mxfile>
